HIERARCHY
ROOT Hips
{
	OFFSET 0.000000 0.000000 0.000000
	CHANNELS 6 Xposition Yposition Zposition Zrotation Yrotation Xrotation 
	JOINT LHipJoint
	{
		OFFSET 0.000000 0.000000 0.000000
		CHANNELS 3 Zrotation Yrotation Xrotation
		JOINT LeftUpLeg
		{
			OFFSET 1.363060 -1.794630 0.839290
			CHANNELS 3 Zrotation Yrotation Xrotation
			JOINT LeftLeg
			{
				OFFSET 2.448110 -6.726130 0.000000
				CHANNELS 3 Zrotation Yrotation Xrotation
				JOINT LeftFoot
				{
					OFFSET 2.562200 -7.039590 0.000000
					CHANNELS 3 Zrotation Yrotation Xrotation
					JOINT LeftToeBase
					{
						OFFSET 0.157640 -0.433110 2.322550
						CHANNELS 3 Zrotation Yrotation Xrotation
						End Site
						{
							OFFSET 0.000000 0.000000 0.000000
						}
					}
				}
			}
		}
	}
	JOINT RHipJoint
	{
		OFFSET 0.000000 0.000000 0.000000
		CHANNELS 3 Zrotation Yrotation Xrotation
		JOINT RightUpLeg
		{
			OFFSET -1.305520 -1.794630 0.839290
			CHANNELS 3 Zrotation Yrotation Xrotation
			JOINT RightLeg
			{
				OFFSET -2.542530 -6.985550 0.000000
				CHANNELS 3 Zrotation Yrotation Xrotation
				JOINT RightFoot
				{
					OFFSET -2.568260 -7.056230 0.000000
					CHANNELS 3 Zrotation Yrotation Xrotation
					JOINT RightToeBase
					{
						OFFSET -0.164730 -0.452590 2.363150
						CHANNELS 3 Zrotation Yrotation Xrotation
						End Site
						{
							OFFSET 0.000000 0.000000 0.000000
						}
					}
				}
			}
		}
	}
	JOINT LowerBack
	{
		OFFSET 0.000000 0.000000 0.000000
		CHANNELS 3 Zrotation Yrotation Xrotation
		JOINT Spine
		{
			OFFSET 0.028270 2.035590 -0.193380
			CHANNELS 3 Zrotation Yrotation Xrotation
			JOINT Spine1
			{
				OFFSET 0.056720 2.048850 -0.042750
				CHANNELS 3 Zrotation Yrotation Xrotation
				JOINT Neck
				{
					OFFSET 0.000000 0.000000 0.000000
					CHANNELS 3 Zrotation Yrotation Xrotation
					JOINT Neck1
					{
						OFFSET -0.054170 1.746240 0.172020
						CHANNELS 3 Zrotation Yrotation Xrotation
						JOINT Head
						{
							OFFSET 0.104070 1.761360 -0.123970
							CHANNELS 3 Zrotation Yrotation Xrotation
							End Site
							{
								OFFSET 0.000000 0.000000 0.000000
							}
						}
					}
				}
				JOINT LeftShoulder
				{
					OFFSET 0.000000 0.000000 0.000000
					CHANNELS 3 Zrotation Yrotation Xrotation
					JOINT LeftArm
					{
						OFFSET 3.362410 1.200890 -0.311210
						CHANNELS 3 Zrotation Yrotation Xrotation
						JOINT LeftForeArm
						{
							OFFSET 4.983000 -0.000000 -0.000000
							CHANNELS 3 Zrotation Yrotation Xrotation
							JOINT LeftHand
							{
								OFFSET 3.483560 -0.000000 -0.000000
								CHANNELS 3 Zrotation Yrotation Xrotation
								JOINT LeftFingerBase
								{
									OFFSET 0.000000 0.000000 0.000000
									CHANNELS 3 Zrotation Yrotation Xrotation
									JOINT LeftHandIndex1
									{
										OFFSET 0.715260 -0.000000 -0.000000
										CHANNELS 3 Zrotation Yrotation Xrotation
										End Site
										{
											OFFSET 0.000000 0.000000 0.000000
										}
									}
								}
								JOINT LThumb
								{
									OFFSET 0.000000 0.000000 0.000000
									CHANNELS 3 Zrotation Yrotation Xrotation
									End Site
									{
										OFFSET 0.000000 0.000000 0.000000
									}
								}
							}
						}
					}
				}
				JOINT RightShoulder
				{
					OFFSET 0.000000 0.000000 0.000000
					CHANNELS 3 Zrotation Yrotation Xrotation
					JOINT RightArm
					{
						OFFSET -3.136600 1.374050 -0.404650
						CHANNELS 3 Zrotation Yrotation Xrotation
						JOINT RightForeArm
						{
							OFFSET -5.241900 -0.000000 -0.000000
							CHANNELS 3 Zrotation Yrotation Xrotation
							JOINT RightHand
							{
								OFFSET -3.444170 -0.000000 -0.000000
								CHANNELS 3 Zrotation Yrotation Xrotation
								JOINT RightFingerBase
								{
									OFFSET 0.000000 0.000000 0.000000
									CHANNELS 3 Zrotation Yrotation Xrotation
									JOINT RightHandIndex1
									{
										OFFSET -0.622530 -0.000000 -0.000000
										CHANNELS 3 Zrotation Yrotation Xrotation
										End Site
										{
											OFFSET 0.000000 0.000000 0.000000
										}
									}
								}
								JOINT RThumb
								{
									OFFSET 0.000000 0.000000 0.000000
									CHANNELS 3 Zrotation Yrotation Xrotation
									End Site
									{
										OFFSET 0.000000 0.000000 0.000000
									}
								}
							}
						}
					}
				}
			}
		}
	}
}
MOTION
Frames: 12
Frame Time: 0.008333
-0.338261 18.460959 7.903051 -9.086009 -0.637322 9.069299 7.591180 5.198917 0.134141 -21.547023 -38.503634 17.825439 -3.665896 -2.460358 -2.079042 -14.019841 42.625328 -22.545998 0.191900 2.821400 7.781900 0.072123 -4.922092 2.059204 23.470384 26.176815 2.405936 3.408253 -0.632785 3.493313 6.798147 -22.170961 -0.907544 -0.000200 0.080800 -0.221900 -4.638324 1.999030 3.968951 26.559967 3.638281 -1.859064 -9.911797 -1.311905 -17.946532 -5.303401 -5.024571 -25.202135 -5.216211 -1.697440 43.524962 -1.907300 -1.113800 12.309000 -9.121205 -5.408410 0.615665 -86.575822 -4.013283 58.421381 76.182847 -54.372469 -55.476688 -1.277969 -2.063997 -8.562683 37.141266 -7.078942 -3.748500 -7.125000 0.000000 0.000000 8.975900 23.994600 -4.604600 8.371390 8.632514 3.857579 59.745335 12.277878 59.235307 -109.395646 57.050828 -80.406231 -1.273500 1.060049 7.161435 -28.686053 -30.553055 15.318800 7.125000 0.000000 0.000000 5.957900 -65.046500 -2.893000 
-0.339836 18.460854 7.900846 -9.159930 -0.610854 9.043278 7.582507 5.200149 0.134722 -21.402615 -38.426207 17.772352 -3.663045 -2.459818 -2.084251 -13.986541 42.544331 -22.435648 0.194000 2.836300 7.823400 0.059478 -4.921105 2.056236 23.592042 26.116365 2.420690 3.407633 -0.632736 3.500635 6.788639 -22.154947 -0.896932 -0.000300 0.113400 -0.311700 -4.516941 1.949116 4.027089 26.479238 3.573750 -1.845885 -9.922191 -1.347026 -18.008869 -5.123383 -4.906019 -25.142134 -5.204152 -1.588773 43.639136 -1.905400 -1.043300 12.326900 -9.119997 -5.402658 0.608798 -86.486251 -3.905179 58.257609 75.986367 -54.323415 -55.262626 -1.296430 -2.045964 -8.583115 37.412347 -7.311419 -3.983000 -7.125000 0.000000 0.000000 9.151100 23.662800 -4.767600 8.376106 8.646957 3.855364 59.689656 12.625835 59.966655 -108.342232 57.137025 -79.391495 -1.293577 1.021910 10.517240 -38.051035 -26.119905 19.041400 7.125000 0.000000 0.000000 -8.004300 -62.968800 3.503800 
-0.342251 18.458544 7.899376 -9.209310 -0.725975 8.866797 7.565886 5.223258 0.187614 -21.478766 -38.404511 18.029146 -3.670494 -2.477479 -2.093565 -14.005089 42.601486 -22.652098 0.203100 2.901900 8.005900 0.031594 -4.935866 2.105042 23.720827 25.972773 2.503879 3.401239 -0.637814 3.557066 6.711850 -21.936284 -0.804220 -0.000400 0.126100 -0.346500 -4.412859 1.962219 3.977971 26.300887 3.502572 -1.401430 -9.933224 -1.330399 -18.180317 -5.190993 -4.902038 -25.287698 -4.822884 -1.690659 43.915732 -1.813400 -1.028200 12.405800 -9.093014 -5.400150 0.585633 -86.334028 -4.028561 58.367176 75.621606 -54.235696 -54.880596 -1.315755 -2.021954 -8.518562 37.693220 -7.486467 -4.180400 -7.125000 0.000000 0.000000 9.337100 23.394100 -4.925600 8.397006 8.657736 3.791324 59.331985 12.790842 61.121676 -104.104215 57.499358 -75.749343 -1.291871 0.842935 18.944637 -45.359738 -30.841418 27.204300 7.125000 0.000000 0.000000 -19.188600 -70.390300 11.778500 
-0.345820 18.455185 7.898012 -9.180977 -0.983250 8.628486 7.511703 5.262119 0.292259 -21.629796 -38.319589 18.309731 -3.679993 -2.485211 -2.064488 -14.007373 42.644388 -22.966762 0.211100 2.958300 8.162700 -0.031054 -4.950670 2.179297 23.788680 25.804890 2.574721 3.389210 -0.652772 3.662795 6.600093 -21.604571 -0.616297 -0.000700 0.170800 -0.469200 -4.211228 2.024852 3.766796 25.739411 3.443809 -0.594401 -9.894597 -1.240680 -18.393663 -5.373262 -4.991274 -25.618122 -4.178052 -1.982237 44.236202 -1.666800 -1.067300 12.494100 -9.042643 -5.405365 0.559328 -86.053641 -4.306434 58.712390 75.355554 -54.183524 -54.605455 -1.326785 -2.007260 -8.564364 37.871330 -7.573853 -4.290400 -7.125000 0.000000 0.000000 9.458500 23.249500 -5.023200 8.491624 8.653021 3.661092 58.940418 12.935368 62.235221 -96.513468 57.606511 -69.341129 -1.198450 0.868142 25.694453 -44.334624 -35.710756 29.281300 7.125000 0.000000 0.000000 -17.251500 -75.359700 12.412200 
-0.351489 18.452980 7.893182 -9.100599 -1.338793 8.187181 7.471317 5.364876 0.574527 -21.732464 -38.047034 18.432872 -3.685958 -2.496428 -1.992773 -13.974471 42.564228 -23.017610 0.212800 2.969700 8.194500 -0.051563 -4.989462 2.415471 23.744604 25.703334 2.671926 3.374683 -0.658931 3.790698 6.506348 -21.285431 -0.377932 -0.001300 0.228600 -0.628100 -4.250381 2.028861 2.693288 25.476306 3.023298 1.975225 -9.795114 -1.127806 -18.770601 -5.490763 -5.092241 -26.101319 -3.752489 -2.247591 44.051172 -1.575900 -1.130800 12.463800 -8.978246 -5.466186 0.387290 -85.791246 -4.996896 59.101458 75.273928 -54.183918 -54.497953 -1.334971 -2.002021 -8.767103 38.006966 -7.700885 -4.422800 -7.125000 0.000000 0.000000 9.546500 23.065400 -5.112200 8.455394 8.679708 3.365240 58.501344 13.605414 64.058493 -88.111624 56.961796 -62.078006 -1.003588 1.082866 22.608093 -34.667733 -36.367040 21.970800 7.125000 0.000000 0.000000 1.908300 -72.863800 -1.261400 
-0.357054 18.450251 7.883419 -8.880427 -1.698601 7.918310 7.467615 5.388988 0.679302 -22.096476 -37.871350 18.646774 -3.697525 -2.505944 -1.932945 -13.968483 42.585829 -23.261653 0.226100 3.060600 8.447600 -0.053434 -5.024272 2.521851 23.493406 25.733141 2.699467 3.360294 -0.694207 3.917488 6.419925 -21.006554 -0.185333 -0.000900 0.193300 -0.531000 -4.652596 2.132577 2.448550 25.458736 2.936980 2.944379 -9.591916 -1.001913 -19.009683 -5.537621 -5.123905 -26.232518 -3.673981 -2.318431 43.952430 -1.552500 -1.160200 12.443200 -8.954991 -5.480598 0.333145 -85.691150 -5.191176 59.269597 75.422031 -54.234325 -54.643400 -1.334581 -2.011411 -8.926477 38.022342 -7.750880 -4.460700 -7.125000 0.000000 0.000000 9.556100 23.009800 -5.129800 8.395624 8.720139 3.230211 58.183058 14.162888 65.880953 -81.673744 56.110104 -56.419078 -0.932171 1.290001 13.676344 -17.402089 -41.605086 11.227500 7.125000 0.000000 0.000000 33.642100 -71.666300 -22.086400 
-0.356844 18.445211 7.871660 -8.450998 -2.190586 7.662725 7.433328 5.384275 0.730325 -22.993004 -38.020011 19.310041 -3.726094 -2.528666 -1.886934 -14.016383 42.842881 -24.229742 0.274400 3.369100 9.308200 -0.098344 -5.066435 2.572888 23.010713 25.828200 2.737677 3.345472 -0.737127 4.043919 6.338514 -20.735131 0.044106 -0.000500 0.138800 -0.381300 -5.062547 2.292088 2.635130 25.040245 3.001843 3.313711 -9.232095 -0.828060 -19.306128 -5.440720 -5.110217 -26.326407 -3.790950 -2.286636 44.034299 -1.575500 -1.168800 12.446800 -8.948717 -5.436067 0.318563 -85.657702 -5.101303 59.303787 75.650608 -54.316432 -54.897512 -1.328195 -2.030579 -8.978913 37.913965 -7.689182 -4.378500 -7.125000 0.000000 0.000000 9.488900 23.121300 -5.068100 8.439071 8.721817 3.194014 58.042101 14.685495 66.392628 -78.497101 55.624796 -53.618395 -1.103276 1.400355 1.785435 4.700604 -53.303871 -4.744700 7.125000 0.000000 0.000000 79.788200 -69.739000 -57.875600 
-0.356739 18.443742 7.888248 -8.674382 -2.140120 7.637234 7.463718 5.406543 0.742144 -22.970720 -38.081271 19.577502 -3.733335 -2.558182 -1.935581 -14.017146 42.871967 -24.448408 0.289600 3.460900 9.564700 -0.085742 -5.066581 2.603537 23.286832 25.516646 2.817598 3.348881 -0.686346 3.951694 6.249006 -20.512062 0.146260 -0.000500 0.144100 -0.395900 -4.921007 2.317402 2.410751 25.278407 3.052547 3.393423 -9.436619 -0.840444 -19.149465 -5.587304 -5.199014 -26.330921 -3.567441 -2.455323 43.979192 -1.539000 -1.214800 12.445900 -8.936275 -5.476514 0.328244 -85.596107 -5.063871 59.427182 75.851838 -54.362594 -55.086950 -1.322081 -2.033636 -8.906281 37.838255 -7.593856 -4.286000 -7.125000 0.000000 0.000000 9.442900 23.253200 -5.013900 8.390544 8.744543 3.156358 57.881468 14.819375 66.713070 -75.454146 55.064877 -50.806559 -1.105143 1.394827 -7.960953 3.502464 -57.317939 -3.744200 7.125000 0.000000 0.000000 90.872400 -70.768100 -70.509000 
-0.357578 18.442902 7.894547 -8.676173 -2.129602 7.753188 7.422746 5.375857 0.669634 -22.963273 -38.095431 19.618923 -3.736362 -2.562108 -1.970981 -13.989465 42.861317 -24.606829 0.302000 3.533200 9.766800 -0.141312 -5.058473 2.523989 23.371474 25.479764 2.845443 3.352008 -0.670650 3.903972 6.218442 -20.444756 0.149462 -0.000200 0.085200 -0.234000 -4.664987 2.466162 2.912319 24.784258 3.383503 2.557750 -9.483555 -0.773319 -19.114751 -5.803025 -5.348922 -26.371105 -3.085013 -2.779229 43.928177 -1.445800 -1.296100 12.403300 -8.921804 -5.442504 0.425293 -85.472714 -4.929658 59.701542 76.044102 -54.423682 -55.297484 -1.316298 -2.036385 -8.722698 37.705232 -7.470794 -4.161700 -7.125000 0.000000 0.000000 9.356700 23.426500 -4.929200 8.552393 8.688108 3.192459 57.397273 14.118753 67.627553 -75.414948 55.122584 -50.812549 -1.004579 1.378092 -7.580118 -6.662544 -52.637757 4.775100 7.125000 0.000000 0.000000 73.859100 -73.777000 -57.051000 
-0.361358 18.440697 7.893602 -8.326210 -2.112861 7.491297 7.350705 5.432928 0.863520 -23.221583 -37.969582 19.580397 -3.731962 -2.570096 -1.956159 -13.970188 42.772319 -24.285459 0.281100 3.409800 9.421700 -0.194443 -5.110845 2.686957 23.068591 25.604051 3.008593 3.360527 -0.626317 3.859319 6.306251 -20.605321 0.021287 0.000000 -0.041600 0.114200 -4.740350 2.436017 2.369015 24.179622 3.023175 4.420430 -9.194969 -0.676756 -19.594985 -5.964698 -5.459160 -26.703297 -2.768884 -3.023736 43.178729 -1.365000 -1.377000 12.181700 -8.845563 -5.407503 0.260608 -85.520124 -5.335663 59.902509 76.249593 -54.511843 -55.518925 -1.315329 -2.041027 -8.550614 37.445893 -7.510452 -4.151700 -7.125000 0.000000 0.000000 9.159400 23.404600 -4.827200 8.626070 8.599272 3.061694 56.920901 13.671755 66.776328 -81.279714 56.181291 -56.179118 -1.108186 1.311977 -1.972497 -0.251971 -55.889098 -0.655700 7.125000 0.000000 0.000000 85.529400 -71.889000 -66.273500 
-0.363038 18.439752 7.894127 -7.889117 -1.831624 7.444341 7.252920 5.449816 0.944911 -23.470115 -38.011334 19.378285 -3.715889 -2.538257 -1.921646 -13.949155 42.663935 -23.724902 0.247200 3.199200 8.833900 -0.278175 -5.131308 2.735203 22.663190 25.690222 3.057270 3.377466 -0.576616 3.759204 6.466552 -20.973081 -0.235418 -0.000900 -0.198600 0.545800 -4.634480 2.295138 2.160901 23.241767 2.738184 5.248522 -8.859040 -0.645173 -19.904762 -6.093353 -5.501514 -26.741448 -2.567254 -3.160386 42.600876 -1.298800 -1.424600 11.960700 -8.779369 -5.362966 0.176661 -85.541416 -5.358633 59.897269 76.511804 -54.611658 -55.801050 -1.319445 -2.044917 -8.336774 37.317991 -7.563578 -4.168600 -7.125000 0.000000 0.000000 9.058800 23.359300 -4.782500 8.825936 8.467091 3.009938 56.963401 12.952935 64.723253 -89.088875 57.335045 -63.225727 -1.160427 1.184856 0.580150 -0.912989 -56.920403 -0.194600 7.125000 0.000000 0.000000 88.108400 -72.128700 -69.213800 
-0.357788 18.446261 7.903786 -8.294528 -1.216764 7.890388 7.337810 5.425402 0.827677 -22.788229 -38.401556 18.893507 -3.695475 -2.521301 -1.983304 -13.986783 42.644337 -23.246224 0.220000 3.019200 8.332200 -0.159066 -5.076395 2.641667 22.927514 25.784901 2.859588 3.396376 -0.554442 3.626316 6.609997 -21.408201 -0.647702 -0.002700 -0.337200 0.926400 -4.445939 2.142503 2.142503 24.258147 2.726723 4.352795 -9.334768 -0.871152 -19.453811 -6.289885 -5.502634 -26.359519 -2.858209 -3.008411 42.081168 -1.340000 -1.406300 11.824300 -8.834751 -5.392859 0.217229 -85.718807 -5.100419 59.574135 76.835238 -54.664947 -56.097143 -1.309888 -2.048835 -8.128019 37.262789 -7.377668 -4.004100 -7.125000 0.000000 0.000000 9.034500 23.609000 -4.716800 8.699895 8.453254 3.126789 57.229290 12.224934 62.903326 -97.330415 57.899780 -70.336176 -1.122957 1.010843 2.980471 -11.070567 -53.742944 8.156400 7.125000 0.000000 0.000000 75.288400 -75.411900 -60.273300 
